<?xml version="1.0" standalone="no"?>
<!DOCTYPE svg PUBLIC "-//W3C//DTD SVG 20010904//EN"
 "http://www.w3.org/TR/2001/REC-SVG-20010904/DTD/svg10.dtd">
<svg version="1.0" xmlns="http://www.w3.org/2000/svg"
 width="512.000000pt" height="512.000000pt" viewBox="0 0 512.000000 512.000000"
 preserveAspectRatio="xMidYMid meet">

<g transform="translate(0.000000,512.000000) scale(0.100000,-0.100000)" stroke="none">
<path d="M3953 4946 c-80 -26 -128 -65 -315 -253 l-188 -188 528 -528 528
-528 197 199 c233 235 252 265 251 397 0 136 -4 141 -391 527 -264 264 -348
342 -386 358 -61 27 -168 35 -224 16z"/>
<path d="M1909 2963 l-1317 -1318 -55 -165 c-30 -91 -110 -324 -176 -518 -154
-449 -205 -622 -197 -665 10 -55 43 -97 93 -119 42 -19 53 -20 108 -9 100 18
404 113 690 216 149 53 342 122 430 152 l160 56 1318 1316 1317 1316 -528 528
-527 527 -1316 -1317z"/>
</g>
</svg>
