<?xml version="1.0" standalone="no"?>
<!DOCTYPE svg PUBLIC "-//W3C//DTD SVG 20010904//EN"
 "http://www.w3.org/TR/2001/REC-SVG-20010904/DTD/svg10.dtd">
<svg version="1.0" xmlns="http://www.w3.org/2000/svg"
 width="512.000000pt" height="512.000000pt" viewBox="0 0 512.000000 512.000000"
 preserveAspectRatio="xMidYMid meet">

<g transform="translate(0.000000,512.000000) scale(0.100000,-0.100000)" stroke="none">
<path d="M3535 4981 c-57 -27 -1288 -1262 -1310 -1313 -38 -94 6 -206 100
-256 41 -21 131 -20 175 2 19 10 232 214 473 454 l437 437 0 -1781 0 -1780 26
-53 c39 -77 87 -106 179 -106 92 0 140 29 179 106 l26 53 0 1780 0 1781 438
-437 c240 -240 453 -444 472 -454 44 -22 134 -23 175 -2 94 50 138 162 100
256 -22 51 -1253 1286 -1310 1313 -22 10 -58 19 -80 19 -22 0 -58 -9 -80 -19z"/>
<path d="M1430 4498 c-30 -16 -55 -41 -75 -73 l-30 -48 -3 -1791 -2 -1791
-438 437 c-240 240 -453 444 -472 454 -44 22 -134 23 -175 2 -97 -52 -140
-169 -96 -263 27 -57 1262 -1288 1313 -1310 47 -19 99 -19 146 0 51 22 1286
1253 1313 1310 44 94 1 211 -96 263 -41 21 -131 20 -175 -2 -19 -10 -232 -214
-472 -454 l-438 -437 0 1781 0 1780 -26 53 c-36 71 -86 104 -168 109 -50 3
-69 -1 -106 -20z"/>
</g>
</svg>
